# xmcd
# 
# Track frame offsets:
#     150
#     10173
#     25838
#     44725
#     59665
#     71743
#     83728
#     94003
#     110100
#     126305
#     139438
#     152513
#     162213
#     174195
#     185448
#     198050
# 
# Disc length: 2889
# 
# Revision: 6
# Processed by: cddbd v1.5.2PL0 Copyright (c) Steve Scherf et al.
# Submitted via: fre:ac v1.1beta1pre3
# 
DISCID=db0b4710
DTITLE=Various Artist - Country and Western Festival - Vol.5
DYEAR=1995
DGENRE=Country
TTITLE0=Freddie Fender - Wasted Days and Wasted Nights
TTITLE1=George Jones - He Stopped Loving Her Today
TTITLE2=Nitty Gritty Dirt Band - Mr. Bojangles
TTITLE3=Gene Watson - Love In The Hot Afternoon
TTITLE4=Mickey Gilley - Object Of My Affection
TTITLE5=Boxcar Willie - Hobo Heaven
TTITLE6=Tammy Wynette - Another Chance
TTITLE7=Mel Tillis - Rosie Of El Paso
TTITLE8=Lynn Anderson - Fools For Eachother (with Ed Bruce)
TTITLE9=Freddie Weller - She Loves Me Right Out Of My Mind
TTITLE10=Lynn Anderson - Cry
TTITLE11=Rex Allen Jr. - Drink It Down Lady
TTITLE12=Johnny Rodriguez - Love Me With All Your Heart
TTITLE13=Tex Williams - Bottom Of A Mountain
TTITLE14=Johnny Russell - Chrystal Chandeliers
TTITLE15=Tanya Tucker - Delta Dawn
EXTD=YEAR: 2001
EXTT0=
EXTT1=
EXTT2=
EXTT3=
EXTT4=
EXTT5=
EXTT6=
EXTT7=
EXTT8=
EXTT9=
EXTT10=
EXTT11=
EXTT12=
EXTT13=
EXTT14=
EXTT15=
PLAYORDER=
